<svg xmlns="http://www.w3.org/2000/svg" width="361" height="135.908" viewBox="0 0 361 135.908">
  <g id="Path_157" data-name="Path 157" fill="#9504b3" opacity="0.6">
    <path d="M 267.1930847167969 135.4082183837891 C 263.0878295898438 135.4082641601563 258.9873962402344 135.2824554443359 255.0056762695313 135.0342712402344 C 246.5694122314453 134.5084991455078 238.9617767333984 133.0685882568359 231.0640411376953 130.5028686523438 C 224.0050048828125 128.2095947265625 217.5618591308594 125.2930450439453 210.7404479980469 122.2052230834961 C 194.0490875244141 114.6495895385742 175.1306304931641 106.0858612060547 139.938232421875 103.5278625488281 C 132.8347778320313 103.0115432739258 125.2186813354492 102.7497253417969 117.3015899658203 102.7497253417969 C 87.39900207519531 102.7497253417969 57.06827163696289 106.4916763305664 36.88949966430664 109.6308135986328 C 17.50906944274902 112.6457138061523 3.528229713439941 115.696533203125 0.5 116.3743286132813 L 0.5 0.499998152256012 L 360.5 0.499998152256012 L 360.5 116.6708374023438 C 358.6476745605469 117.4598388671875 348.3279724121094 121.7439270019531 333.0126342773438 125.9775466918945 C 323.1070556640625 128.7157287597656 313.0806884765625 130.8973693847656 303.2120056152344 132.4618682861328 C 290.8803100585938 134.4168090820313 278.7618103027344 135.4081420898438 267.1930847167969 135.4082183837891 Z" stroke="none"/>
    <path d="M 1 1 L 1 115.7509765625 C 5.004364013671875 114.8664474487305 18.502197265625 111.985221862793 36.81271362304688 109.1367263793945 C 57.00894165039063 105.9949035644531 87.36721801757813 102.2496795654297 117.3017730712891 102.2496795654297 C 125.2308197021484 102.2496795654297 132.8589935302734 102.5119018554688 139.9745025634766 103.0291290283203 C 175.2556762695313 105.593635559082 194.2172241210938 114.1768646240234 210.9466400146484 121.7496795654297 C 217.7550506591797 124.8316345214844 224.1858673095703 127.7426376342773 231.2185516357422 130.0273132324219 C 239.0751800537109 132.5797271728516 246.6435852050781 134.0121307373047 255.0367736816406 134.5352783203125 C 259.0079040527344 134.7827301025391 263.0978698730469 134.9082183837891 267.1930847167969 134.9082183837891 C 278.7315979003906 134.9082183837891 290.8193664550781 133.9197692871094 303.1206665039063 131.9702758789063 C 312.9684448242188 130.4096374511719 322.9740600585938 128.2331390380859 332.8595581054688 125.5012283325195 C 347.46337890625 121.4654541015625 357.5172424316406 117.3833236694336 360 116.3394775390625 L 360 1 L 1 1 M 0 0 L 361 0 L 361 117 C 361 117 318.0442504882813 135.9082183837891 267.193115234375 135.9082183837891 C 263.1634521484375 135.9082183837891 259.0859680175781 135.7895660400391 254.9745941162109 135.5333099365234 C 213.6700439453125 132.9589996337891 203.6456298828125 108.6598663330078 139.9019927978516 104.026496887207 C 132.4904022216797 103.4877777099609 124.9098052978516 103.2496948242188 117.3017578125 103.2496948242188 C 59.47659301757813 103.2496948242188 0 117 0 117 L 0 0 Z" stroke="none" fill="#707070"/>
  </g>
</svg>
